<svg width="500" height="832" viewBox="0 0 500 832" fill="none" xmlns="http://www.w3.org/2000/svg">
<path d="M166.831 0H0V425.032C0 455.3 40.5822 497.502 71.1395 497.502H165.788V165.834H331.549V166.398H333.169H499.96L499.935 0H333.169V166.398L166.831 0Z" fill="white"/>
<path d="M499.984 329.288L331.549 168.817V432.866C323.156 554.983 220.976 656.429 98.6164 663.402C91.0173 663.835 83.6589 663.613 76.5331 663.398C53.7932 662.713 33.4221 662.099 15.1547 683.067C9.55489 689.504 0.0130531 706.636 0.0130531 714.928V831.795C12.0036 831.701 23.9549 831.789 35.8766 831.878C78.1129 832.191 119.978 832.501 161.898 824.64C349.054 789.514 490.98 626.174 500 435.543L499.984 329.288Z" fill="white"/>
</svg>
